<?xml version="1.0" encoding="utf-8"?>
<!-- Generator: Adobe Illustrator 15.1.0, SVG Export Plug-In . SVG Version: 6.00 Build 0)  -->
<!DOCTYPE svg PUBLIC "-//W3C//DTD SVG 1.0//EN" "http://www.w3.org/TR/2001/REC-SVG-20010904/DTD/svg10.dtd">
<svg version="1.0" id="レイヤー_1" xmlns="http://www.w3.org/2000/svg" xmlns:xlink="http://www.w3.org/1999/xlink" x="0px"
	 y="0px" width="379.824px" height="148.245px" viewBox="0 0 379.824 148.245" enable-background="new 0 0 379.824 148.245"
	 xml:space="preserve">
<g>
	<path fill="#FFFFFF" d="M68.168,36.902l-0.307,3.143l-0.46,3.91l-0.767,2.99l-0.997,2.147l-0.613,2.223l-1.227,2.53l-2.07,1.38
		l-1.073,2.223l-2.224,2.224l-2.223,0.92l-1.84,1.227l-7.897,0.92l-3.756-0.92h-2.3l-2.99-1.38l-0.46-0.767v-2.07l0.613-0.46h1.993
		l2.223,0.767l2.377,0.613l4.37,0.307l3.756-0.307l2.53-0.613l1.533-2.223l0.997-2.3l2.146-2.99l0.537-2.223l1.38-2.07l0.613-3.45
		l0.307-5.903l-0.767-2.99v-3.143l-1.227-2.684l-2.377-4.6l-0.613-1.84l-1.457-0.767l-1.073-2.683l-3.297-1.61l-2.53-0.92
		l-4.063-0.46l-4.37-0.153l-4.293,0.153l-1.074,1.073l0.767,2.377l-1.073,3.45l-1.073,3.604l-1.15,4.063l-0.92,4.14l-0.46,2.3
		l-0.153,3.45l-0.613,3.144l-0.383,4.14l-0.767,3.144v3.45l-0.92,3.757l-0.46,2.837l-0.46,3.296l-1.303,3.604l-0.46,3.45
		l-1.073,4.063l-0.613,4.063l-0.997,4.293l-1.227,4.37l-3.756,7.514l-0.154,2.684l-1.15,2.376l-0.92,2.684l0.153,3.45l-0.307,2.3
		l-1.073,2.837l0.613,3.91l1.38,1.916l0.46,2.07l-0.46,0.766l-1.38,0.154h-0.767l-0.69-0.92l-1.073-2.684l-0.307-3.604l0.46-4.6
		l0.613-4.063l0.307-4.217v-3.144l1.15-0.766l0.767-1.918l0.153-3.756l-0.613-3.757l1.38-2.53l1.457-6.594l0.613-3.909l0.767-3.297
		l-0.767-3.143l0.307-2.837l0.92-5.213l0.307-5.29l0.843-4.6l-0.153-4.217l0.92-3.604l1.227-5.366v-4.063l0.843-5.827l-0.843-3.604
		l-0.46-3.756l-0.46-2.377l0.767-3.603l1.764-1.687l3.296-0.843l2.99,1.15h2.146l3.833-1.917l3.756-0.613l3.604,0.46l3.296-0.92
		l3.757,0.767l4.217,1.61l3.143,2.147l2.837,2.99l2.376,4.523l1.073,1.457l0.307,2.53l1.304,2.146l0.767,2.99l0.46,2.837
		l-0.307,2.53L68.168,36.902z M19.025,37.362l-0.307,0.92l-1.38,0.767l-1.303-1.533l1.303-0.767L19.025,37.362z"/>
	<path fill="#FFFFFF" d="M103.997,93.649l-0.312,2.73l-0.546,2.496l-1.092,1.95l-0.78,2.106l-1.326,2.184l-1.872,1.326l-1.248,1.872
		l-2.574,1.326l-2.574,0.937l-3.042,0.312l-3.042,0.468l-2.886,0.313l-3.042-0.625l-2.496-0.467l-2.418-0.937l-1.95-0.858
		l-2.028-1.872l-1.794-2.106l-1.872-1.092l-1.326-2.105l-0.936-2.184l-1.092-2.107l-0.156-2.418l-0.234-3.041l0.39-2.185l0.78-3.042
		v-3.042l0.936-3.042l1.638-4.836l1.716-1.561l0.312-1.794l1.638-1.248l2.028-1.404l1.95-1.17l2.886-0.624l1.872,0.312l1.638,0.936
		l0.936,1.794l0.312,1.56l-0.156,2.106l-1.248,1.638l-1.482,1.873l-0.936,2.105l-0.156,2.028l-1.56,1.481l-0.858,2.887l-0.78,1.872
		l-0.156,2.886v2.418l0.468,2.574l1.092,2.028l1.326,1.638l1.716,1.248l1.638,1.639l2.028,0.623l2.574,0.156l0.312,0.469
		l2.886-0.156l2.574-0.469l2.886-1.949l1.716-1.717l1.326-2.574l0.468-2.418V91.7l-0.78-1.873l-1.326-2.418l-1.404-1.949
		l-1.794-1.717l-1.872-1.481l-1.482-1.093l-1.092-0.936l-0.312-1.638l0.624-1.093h1.482l1.404,0.937l1.95,0.78l1.248,1.014
		l2.574,1.717l1.716,1.326l1.17,1.715l1.404,2.106l1.248,1.872l0.702,1.794L103.997,93.649z M88.007,76.255l-0.936,0.313
		l-1.014-0.857l0.624-0.625l1.014,0.156L88.007,76.255z"/>
	<path fill="#FFFFFF" d="M142.146,74.461l-1.092,0.312l-1.482-0.156h-1.404l-2.106,0.312l-2.574,1.482l-1.248,1.717l-2.574,1.092
		l-1.092,1.326l-2.106,1.871l-0.936,1.951l-0.624,1.793v2.341l-0.624,1.794l-0.702,1.872l-0.624,2.106l-0.156,2.262v5.07
		l-0.156,2.262l-0.624,2.262l-0.156,2.185l-0.312,2.418v2.263l-1.17,2.34l-1.404,1.326l-2.106,0.623l-1.404,0.313l-1.248-0.313
		l-1.17-1.248l-0.624-1.481l-0.624-1.56l0.156-1.795l-0.156-2.574v-3.666l-0.156-1.716l0.156-1.95l0.156-2.574v-2.184l0.312-2.574
		l0.156-2.574l-0.156-2.886v-2.341l-0.312-1.949l-0.156-1.795l-1.326-2.184l-1.092-1.794l-0.624-1.872l-0.156-2.106l0.312-1.95
		l0.78-1.404l1.326-0.936l2.184-0.78l2.418-1.17l2.106,0.312l2.652,1.17l0.312,1.56l1.17,2.106v3.198l0.936,0.936l0.936,0.156
		l1.326-0.312l1.56-1.248l2.106-1.326l2.418-1.092l2.028-1.17l2.418-0.312l2.574-0.624h1.404l1.95,0.624l0.624,1.17V74.461z"/>
	<path fill="#FFFFFF" d="M193.934,65.647l-0.156,1.17l-1.17,0.78l-2.028,0.468l-2.262,0.156l-2.418,0.624h-2.184l-2.418,0.156
		l-3.042,0.702l-1.794-0.546l-2.184,0.702l-1.638,1.092l-0.78,1.248v1.482l-0.156,2.418l-0.624,1.248v1.872l-0.468,2.105
		l-0.858,3.043l-0.312,2.574v10.062l0.156,2.419l-0.156,2.963l-0.624,2.263l-0.156,1.794l-0.312,3.042l0.624,5.382l0.624,1.326
		l1.014,2.184l1.56,1.171l2.886,1.092l1.716-0.155h3.432l-0.858,1.248l-2.73,1.014h-3.667l-2.34-0.391l-2.418-0.779l-2.262-1.404
		l-2.34-0.78l-2.418-2.573l-1.17-2.574l-0.156-2.887l-0.624-2.887l-0.624-2.027l0.312-3.042v-3.198l-0.312-2.418l0.468-2.262
		l-0.78-3.043l-0.312-3.51l-0.156-2.809l0.156-2.573l0.624-2.886V70.639l-2.106,0.312l-2.028,0.624l-2.262,0.78l-1.56,1.17
		l-1.482,0.312l-1.092-0.156l-0.624-0.78v-0.858l0.312-1.404l0.936-0.936l1.638-0.858l1.716,0.156l2.106-0.468l2.028-0.312
		l2.418-0.156l0.312-1.404l-0.312-2.262l0.312-2.574l0.156-3.354l-0.156-2.184l-0.312-1.95l-0.624-1.95v-1.716l0.936-1.95
		l2.262-1.092l1.56-1.638l2.418-0.936l1.95,0.156l1.716,0.78l1.794,1.17l0.624,1.092l1.248,1.482l0.468,1.248l1.17,1.95l0.312,0.936
		l-0.156,2.262l-0.624,1.716l-0.234,1.95l-0.78,1.56l0.312,1.482l1.326,0.936l2.184,0.468l2.106-0.312h5.928l1.716,0.312
		l3.042,0.156l2.262,0.624l1.092,0.156L193.934,65.647z M191.516,75.241l-0.936,1.639l-1.95-0.313l-0.312-1.482l1.404-0.468
		L191.516,75.241z"/>
	<path fill="#FFFFFF" d="M240.102,19.314l-0.702,1.482l-3.042,1.716h-3.12l-2.418,0.156l-1.95,0.702l-2.027,1.092l-2.263,1.794
		l-1.481,1.872l-0.313,2.106l-1.248,2.34l-0.78,2.886l-0.78,3.042l-0.546,3.198l-0.155,3.667l-0.781,2.73l0.313,2.886v5.928
		l0.313,2.184l0.156,1.326l1.326,1.248l1.715,0.78l3.354,0.156l1.171,0.702l1.871-0.312l2.418,0.312h2.73l2.887,1.248l1.092,0.78
		l1.56,1.014l-0.937,0.624l-6.707,2.028h-2.418l-4.135,1.326l-2.105,0.156l-3.121,2.028l-0.546,1.014v5.929l-0.155,4.134l0.155,2.34
		l-0.155,2.418v6.24l-0.156,2.729l-0.625,2.574v2.34l-0.155,3.043l-0.312,3.042l-0.469,3.978l-1.482,3.199l-0.623,3.041
		l-1.092,3.354l-0.469,3.042v2.418l-0.313,2.418v2.652l-0.155,2.887l0.468,2.262l-1.17,1.561l-1.404,0.545l-0.936-1.481v-2.886
		l0.624-5.227l0.155-3.51l0.156-2.263l-0.156-2.729l0.781-2.418l0.467-3.121l0.858-2.886l1.093-4.212v-2.496l0.312-2.574
		l0.155-2.886l-0.155-27.457l-1.404-0.78l-2.262,0.624l-2.106,0.312l-1.561,0.468l-2.573-0.156l-1.95-0.624l-2.652-2.73
		l-0.857-1.482l-0.156-1.092l0.156-1.716l1.326-1.794l1.715-1.248l4.135-0.702h1.794l1.95,0.39l1.872-1.17l0.624-0.936v-1.248
		l-0.313-2.73l-0.467-3.042l-0.781-2.886l-0.155-1.95l0.155-1.872l-0.779-4.29v-2.262l-0.156-2.418l0.78-4.446l0.155-2.886
		l1.404-4.29l1.014-2.418l1.093-2.106l0.937-2.028l0.467-1.794l0.313-2.262l1.482-1.872l1.56-1.092l2.106-1.17l2.418-0.624
		l2.027-0.156l2.263-0.624l2.886,0.624l2.418,0.78l1.717,0.78l3.354,3.588l1.326,1.56L240.102,19.314z"/>
	<path fill="#FFFFFF" d="M280.818,93.649l-0.313,2.73l-0.545,2.496l-1.092,1.95l-0.781,2.106l-1.326,2.184l-1.871,1.326
		l-1.248,1.872l-2.574,1.326l-2.574,0.937l-3.042,0.312l-3.042,0.468l-2.887,0.313l-3.041-0.625l-2.496-0.467l-2.419-0.937
		l-1.95-0.858l-2.027-1.872l-1.795-2.106l-1.871-1.092l-1.326-2.105l-0.937-2.184l-1.092-2.107l-0.156-2.418l-0.233-3.041
		l0.39-2.185l0.78-3.042v-3.042l0.936-3.042l1.639-4.836l1.716-1.561l0.312-1.794l1.639-1.248l2.027-1.404l1.95-1.17l2.886-0.624
		l1.873,0.312l1.638,0.936l0.937,1.794l0.312,1.56l-0.156,2.106l-1.248,1.638l-1.481,1.873l-0.937,2.105l-0.155,2.028l-1.561,1.481
		l-0.858,2.887l-0.78,1.872l-0.156,2.886v2.418l0.469,2.574l1.092,2.028l1.326,1.638l1.717,1.248l1.637,1.639l2.029,0.623
		l2.574,0.156l0.312,0.469l2.886-0.156l2.574-0.469l2.887-1.949l1.715-1.717l1.326-2.574l0.469-2.418V91.7l-0.78-1.873l-1.326-2.418
		l-1.403-1.949l-1.795-1.717l-1.872-1.481l-1.481-1.093l-1.092-0.936l-0.313-1.638l0.624-1.093h1.481l1.404,0.937l1.95,0.78
		l1.248,1.014l2.574,1.717l1.716,1.326l1.17,1.715l1.404,2.106l1.248,1.872l0.702,1.794L280.818,93.649z M264.828,76.255
		l-0.936,0.313l-1.015-0.857l0.624-0.625l1.014,0.156L264.828,76.255z"/>
	<path fill="#FFFFFF" d="M301.729,19.314l-0.468,1.482v1.872l-0.155,2.886l-0.703,2.574l-0.623,3.51l0.623,2.73l-0.623,2.418
		l-0.313,3.042l-0.624,7.488l-0.624,2.262l-0.156,2.496l0.156,3.666l-1.326,2.574l-0.468,3.51l-0.78,3.822l-0.623,4.212
		l-0.625,2.886l-1.014,2.184l0.156,1.638v2.184l-0.625,2.106l-0.312,2.73l-0.155,2.184l-0.469,3.042v2.574l-0.779,2.887v7.02
		l0.155,2.262v2.185l0.312,2.263l0.937,1.793l2.106,1.873l1.092,1.481l2.574,2.496l-0.313,1.171h-1.638l-1.872-0.781l-2.262-1.793
		l-2.106-3.043l-1.403-2.574l-0.156-2.496l-0.156-3.197v-2.418L288,97.784l-0.39-2.73v-3.042l0.858-3.042l0.156-3.042l0.468-2.185
		l0.468-2.418l-0.313-2.574l0.313-2.886v-3.12l0.469-2.418l-0.469-2.574l-0.313-3.198l0.313-3.978l-0.779-4.446l-0.156-4.368
		l0.156-3.666l-0.313-8.112l0.156-3.354l-0.156-3.354l-0.858-3.042l-0.78-3.198l-0.623-3.354l-1.248-2.262l-1.326-2.106l-0.78-2.34
		v-2.886l1.403-1.794l2.263-1.092l2.263-0.936h2.027l1.95,0.156l2.263,1.092l2.184,1.95l1.638,1.248l1.56,1.638L301.729,19.314z
		 M305.707,85.928l-1.092,0.858l-1.326-0.625l0.779-1.637l1.482,0.155L305.707,85.928z"/>
	<path fill="#FFFFFF" d="M323.339,34.212l-0.312,1.248l-1.326,1.482l-1.092,1.56v1.482l0.779,1.404l0.779,1.092v2.262l-0.779,1.95
		l-1.248,1.56l-1.639,1.326l-2.027,0.156l-2.262-0.156l-1.326-0.858l-1.561-1.092l-1.404-1.638l-1.793-2.184l-0.781-2.106
		l-0.312-1.56l0.312-1.482l0.781-1.716l1.092-1.326l2.262-1.248l1.95-0.312l2.886-0.312l2.809-0.78l1.949-0.156l1.404,0.156
		L323.339,34.212z M324.275,68.065l-0.469,0.78l-1.639,0.858l-1.092,0.936l-0.467,1.872l-0.313,2.574l-0.858,2.574l0.546,2.262
		l-0.701,1.873l-0.156,2.574l-0.313,2.729v2.729l0.313,3.355l-0.313,2.496v2.729l0.469,2.106l0.701,2.027l-0.701,2.418l0.857,2.106
		v3.666l0.156,1.404l0.624,2.106l0.155,2.262l0.625,1.56v1.482l0.623,1.403l-0.779,1.404l-0.936,0.391l-0.625-0.391l-0.701-1.56
		l-0.469-1.794l-0.313-1.404l-0.779-1.561v-1.481l-1.092-2.418v-2.185l-0.313-1.638v-2.185l-0.546-1.949l-0.312-4.758l-0.313-1.326
		l-0.156-3.043l0.156-2.027l-0.156-2.263v-1.95l-0.779-1.56l-1.326-0.78l-0.937-1.014l-0.937-3.043l-0.312-1.715v-6.241l0.312-2.73
		l-0.467-2.886l-0.156-1.872l-0.625-1.794l0.625-1.872l0.936-1.482l1.248-0.468l1.795-0.468l1.949,0.468l1.404,1.248l1.404,1.17
		h1.794l1.247,1.248l1.171,0.78l0.937,0.858V68.065z M315.461,31.326l-1.248,0.78l-1.326-0.312l0.39-1.404l1.093-0.468
		L315.461,31.326z"/>
	<path fill="#FFFFFF" d="M373.498,93.649l-0.313,2.73l-0.546,2.496l-1.092,1.95l-0.78,2.106l-1.326,2.184l-1.872,1.326l-1.248,1.872
		l-2.573,1.326l-2.574,0.937l-3.043,0.312l-3.041,0.468l-2.887,0.313l-3.042-0.625l-2.496-0.467l-2.418-0.937l-1.95-0.858
		l-2.028-1.872l-1.794-2.106l-1.872-1.092l-1.326-2.105l-0.937-2.184l-1.092-2.107l-0.156-2.418l-0.233-3.041l0.39-2.185l0.78-3.042
		v-3.042l0.937-3.042l1.638-4.836l1.716-1.561l0.313-1.794l1.638-1.248l2.028-1.404l1.95-1.17l2.886-0.624l1.872,0.312l1.638,0.936
		l0.937,1.794l0.312,1.56l-0.156,2.106l-1.248,1.638l-1.481,1.873l-0.937,2.105l-0.155,2.028l-1.56,1.481l-0.859,2.887l-0.779,1.872
		l-0.156,2.886v2.418l0.469,2.574l1.092,2.028l1.326,1.638l1.716,1.248l1.638,1.639l2.028,0.623l2.574,0.156l0.312,0.469
		l2.887-0.156l2.574-0.469l2.886-1.949l1.716-1.717l1.326-2.574l0.468-2.418V91.7l-0.78-1.873l-1.326-2.418l-1.403-1.949
		l-1.794-1.717l-1.872-1.481l-1.482-1.093l-1.092-0.936l-0.312-1.638l0.623-1.093h1.482l1.404,0.937l1.949,0.78l1.248,1.014
		l2.574,1.717l1.717,1.326l1.17,1.715l1.404,2.106l1.248,1.872l0.701,1.794L373.498,93.649z M357.508,76.255l-0.937,0.313
		l-1.015-0.857l0.625-0.625l1.014,0.156L357.508,76.255z"/>
</g>
</svg>
